Coordinates
version=1
nRows=26
nColumns=24
inDegrees=yes

Units are S.I. units (second, meters, Newtons, ...)
Angles are in degrees.

endheader
time	pelvis_tilt	pelvis_list	pelvis_rotation	pelvis_tx	pelvis_ty	pelvis_tz	hip_flexion_r	hip_adduction_r	hip_rotation_r	knee_angle_r	ankle_angle_r	subtalar_angle_r	mtp_angle_r	hip_flexion_l	hip_adduction_l	hip_rotation_l	knee_angle_l	ankle_angle_l	subtalar_angle_l	mtp_angle_l	lumbar_extension	lumbar_bending	lumbar_rotation
      1.25916667	      0.93294383	     -2.57500975	     -5.00738394	      0.30943464	      1.09281365	      0.25192686	     15.70383198	     -0.37164339	     -7.29713434	    -63.94506782	     -0.75093198	     -4.40063125	      7.46747110	      4.94386780	     -0.53274157	     -0.14960662	    -14.74030653	      9.53923745	      4.09347195	      2.52138155	    -19.11507483	      1.51515691	     -1.47277219
      1.26333333	      0.95368976	     -2.69750649	     -4.88346957	      0.31430372	      1.09363212	      0.25158232	     16.06041668	     -0.22736003	     -7.51333732	    -63.29272763	     -0.45557795	     -4.08684144	      7.51214063	      4.41106229	     -0.63131756	     -0.08723174	    -14.26261609	      9.53577317	      4.16118825	      2.52996299	    -19.16909412	      1.72222733	     -1.60493480
      1.26750000	      0.96291160	     -2.81654240	     -4.75565362	      0.31917488	      1.09440486	      0.25124883	     16.41646768	     -0.08299625	     -7.72617896	    -62.59414997	     -0.16091999	     -3.78106836	      7.55774631	      3.89058816	     -0.72866768	     -0.01325961	    -13.78011898	      9.50837193	      4.21459116	      2.53786457	    -19.20979666	      1.92413991	     -1.76135486
      1.27166667	      0.97624591	     -2.91643900	     -4.63379658	      0.32402712	      1.09509388	      0.25094144	     16.76683592	      0.04321934	     -7.92483651	    -61.87494424	      0.13729160	     -3.48452874	      7.60479226	      3.36880974	     -0.80715405	      0.05552319	    -13.29865745	      9.48154518	      4.26180090	      2.54600283	    -19.25383673	      2.10395517	     -1.92514423
      1.27583333	      0.97256886	     -3.02034190	     -4.50606083	      0.32888300	      1.09571712	      0.25063013	     17.12065872	      0.17610911	     -8.12435083	    -61.10849601	      0.42030856	     -3.19773024	      7.65340538	      2.87058977	     -0.89224600	      0.13424853	    -12.82700274	      9.45762084	      4.30037067	      2.55474945	    -19.27864829	      2.29095847	     -2.09086554
      1.28000000	      0.96708826	     -3.12656359	     -4.38140103	      0.33374064	      1.09629037	      0.25033307	     17.46384038	      0.31607104	     -8.31390141	    -60.30008959	      0.68487774	     -2.94266926	      7.70189463	      2.37605796	     -0.98255177	      0.20802187	    -12.35983601	      9.43949903	      4.34011274	      2.56432664	    -19.29875372	      2.47870492	     -2.25029292
      1.28416667	      0.95179809	     -3.22314626	     -4.25977890	      0.33857985	      1.09677954	      0.25007188	     17.81090590	      0.45244107	     -8.48859022	    -59.46023337	      0.94531325	     -2.70212619	      7.74149279	      1.90257437	     -1.06781578	      0.26353732	    -11.91090603	      9.41327192	      4.38767733	      2.57172130	    -19.30689772	      2.64277923	     -2.38366305
      1.28833333	      0.94636765	     -3.29894877	     -4.14457121	      0.34342437	      1.09723673	      0.24981607	     18.13982302	      0.56462383	     -8.65085094	    -58.59189926	      1.19487620	     -2.46841607	      7.78942319	      1.40923116	     -1.12675205	      0.34857482	    -11.43986891	      9.40389314	      4.40332230	      2.58215562	    -19.32413643	      2.80114385	     -2.56641333
      1.29250000	      0.92571095	     -3.38336039	     -4.02937363	      0.34826094	      1.09759823	      0.24957804	     18.47309320	      0.69286014	     -8.80528399	    -57.68576687	      1.42451651	     -2.27452356	      7.83252051	      0.94399819	     -1.20066881	      0.41359417	    -10.99444750	      9.39556173	      4.43245957	      2.59271435	    -19.32257353	      2.96251527	     -2.71107917
      1.29666667	      0.89731765	     -3.45403271	     -3.92180141	      0.35308990	      1.09789436	      0.24937713	     18.80534131	      0.81366742	     -8.93734215	    -56.74580153	      1.64591023	     -2.10113815	      7.87630313	      0.49134435	     -1.26225449	      0.48128827	    -10.55721446	      9.38837158	      4.45446907	      2.60423045	    -19.31496665	      3.10247313	     -2.86326422
      1.30083333	      0.86433109	     -3.51822226	     -3.81899047	      0.35791420	      1.09811383	      0.24919196	     19.13363401	      0.93065948	     -9.05702286	    -55.77636476	      1.85237214	     -1.95435802	      7.91450936	      0.05011740	     -1.31921136	      0.53500753	    -10.13355014	      9.39263823	      4.48098400	      2.61542577	    -19.29698141	      3.23429258	     -2.99616635
      1.30500000	      0.81250773	     -3.57545403	     -3.72214751	      0.36274063	      1.09824473	      0.24903699	     19.47076788	      1.04725422	     -9.15862653	    -54.77304662	      2.04362492	     -1.83581387	      7.95328195	     -0.36661421	     -1.37157168	      0.59367039	     -9.71922963	      9.40087568	      4.50092763	      2.62844421	    -19.25993213	      3.35763847	     -3.13677112
      1.30916667	      0.74591330	     -3.62286669	     -3.63982667	      0.36756574	      1.09829481	      0.24892816	     19.81437481	      1.16499908	     -9.22717762	    -53.73808133	      2.23133011	     -1.75379410	      7.97230272	     -0.75776247	     -1.41883147	      0.61185994	     -9.32718068	      9.40278097	      4.56012256	      2.63489997	    -19.20254165	      3.45841277	     -3.21286216
      1.31333333	      0.71926788	     -3.67017786	     -3.54879460	      0.37237057	      1.09835756	      0.24880621	     20.09952051	      1.27678132	     -9.30059132	    -52.66394923	      2.38026101	     -1.68310198	      8.00444442	     -1.19698920	     -1.46045487	      0.67954494	     -8.92293756	      9.44316019	      4.56246964	      2.64877624	    -19.19548573	      3.56827998	     -3.37752084
      1.31750000	      0.65708790	     -3.70546755	     -3.47941034	      0.37717296	      1.09830477	      0.24874593	     20.41406238	      1.39265929	     -9.32902067	    -51.56036917	      2.54515264	     -1.64333142	      8.02177057	     -1.58462174	     -1.49623969	      0.69555500	     -8.54872093	      9.45697769	      4.60647887	      2.65626648	    -19.14857381	      3.64954797	     -3.45316294
      1.32166667	      0.58964260	     -3.72632045	     -3.42388602	      0.38198933	      1.09816950	      0.24871490	     20.72758989	      1.49659687	     -9.33828755	    -50.43863278	      2.69489887	     -1.62728010	      8.03328587	     -1.97413416	     -1.51617761	      0.71076526	     -8.16153508	      9.50752584	      4.65924875	      2.66272041	    -19.09289231	      3.71522957	     -3.52599153
      1.32583333	      0.54957747	     -3.75487339	     -3.34595312	      0.38676403	      1.09804578	      0.24865539	     20.98606937	      1.60798310	     -9.34575322	    -49.25318703	      2.78145296	     -1.66161208	      8.05971033	     -2.37895012	     -1.54164644	      0.79067020	     -7.80108400	      9.55285383	      4.62743479	      2.67800944	    -19.07124388	      3.79807104	     -3.69233049
      1.33000000	      0.46713835	     -3.76209708	     -3.30074366	      0.39156078	      1.09778308	      0.24867489	     21.28546931	      1.71413601	     -9.30022510	    -48.05455445	      2.92097959	     -1.67690945	      8.07305940	     -2.73275727	     -1.55019603	      0.79871554	     -7.45714158	      9.58736944	      4.66001111	      2.68640930	    -18.99972590	      3.84139247	     -3.75615167
      1.33416667	      0.39774469	     -3.76446379	     -3.25185416	      0.39634945	      1.09748634	      0.24869479	     21.55539612	      1.81401859	     -9.25069479	    -46.81753605	      2.99214371	     -1.76351327	      8.09403868	     -3.10471685	     -1.55177565	      0.85024222	     -7.10438143	      9.65195146	      4.65113054	      2.70162262	    -18.94204576	      3.88227818	     -3.86330908
      1.33833333	      0.31125431	     -3.73764057	     -3.23320877	      0.40115222	      1.09709044	      0.24878568	     21.84079314	      1.89525256	     -9.15118164	    -45.57513020	      3.13513439	     -1.78771390	      8.09990795	     -3.45652504	     -1.52421700	      0.85035441	     -6.76120489	      9.73376013	      4.70918232	      2.70745136	    -18.85308845	      3.87042623	     -3.90417942
      1.34250000	      0.23072493	     -3.75843993	     -3.19259914	      0.40593804	      1.09670069	      0.24883067	     22.07823869	      2.02939103	     -9.05552640	    -44.23937023	      3.18070828	     -1.91583608	      8.10760171	     -3.79778046	     -1.54974950	      0.86299347	     -6.45437989	      9.77789061	      4.71000118	      2.71562915	    -18.81166930	      3.94369582	     -3.97035529
      1.34666667	      0.17748583	     -3.73524009	     -3.16538740	      0.41070371	      1.09627639	      0.24893292	     22.28549561	      2.12197561	     -8.92520400	    -42.89651914	      3.19971705	     -2.09959816	      8.12309379	     -4.18013282	     -1.52484343	      0.91472388	     -6.12073652	      9.85919172	      4.68564116	      2.73037545	    -18.77444495	      3.93915523	     -4.06039357
      1.35083333	      0.07486702	     -3.71059986	     -3.15383705	      0.41550828	      1.09571475	      0.24906545	     22.52982886	      2.22055376	     -8.77104977	    -41.52706449	      3.27209122	     -2.21706877	      8.13321442	     -4.50200648	     -1.50257638	      0.92380404	     -5.80977268	      9.92991424	      4.68685261	      2.74011505	    -18.68934225	      3.93683739	     -4.10793077
      1.35500000	     -0.00898913	     -3.66668188	     -3.14961061	      0.42028036	      1.09512405	      0.24921042	     22.74142712	      2.30509213	     -8.57454429	    -40.12595944	      3.32053736	     -2.36725611	      8.14026620	     -4.83807423	     -1.45644328	      0.93896711	     -5.51095143	     10.01333773	      4.69093356	      2.74878948	    -18.61262733	      3.92509446	     -4.15362874
      1.35916667	     -0.08789281	     -3.63083177	     -3.14370200	      0.42507063	      1.09451562	      0.24938479	     22.92365234	      2.39996917	     -8.37857630	    -38.67808223	      3.31277451	     -2.58750684	      8.14922337	     -5.18760525	     -1.42174662	      0.97243072	     -5.19757471	     10.10476125	      4.67067338	      2.75910799	    -18.56204186	      3.88651539	     -4.20310182
      1.36333333	     -0.16333888	     -3.57554269	     -3.13924280	      0.42983941	      1.09384977	      0.24955852	     23.08916592	      2.47675520	     -8.15066432	    -37.20289515	      3.30209829	     -2.81603274	      8.16153484	     -5.53101362	     -1.36434656	      1.01555248	     -4.90289749	     10.19641161	      4.64291757	      2.77020513	    -18.50522170	      3.83993571	     -4.23966371
